<svg width="24" height="24" viewBox="0 0 24 24" fill="none" xmlns="http://www.w3.org/2000/svg">
<path d="M11.7705 7.9983C9.68032 7.9983 7.97454 9.79651 7.97454 12C7.97454 14.2035 9.68032 16.0017 11.7705 16.0017C13.8607 16.0017 15.5665 14.2035 15.5665 12C15.5665 9.79651 13.8607 7.9983 11.7705 7.9983ZM23.1557 12C23.1557 10.3429 23.1699 8.70077 23.0816 7.04665C22.9933 5.12536 22.5776 3.4202 21.2448 2.01525C19.9093 0.607302 18.2946 0.172008 16.4721 0.0789456C14.9002 -0.0141173 13.3425 0.000892936 11.7734 0.000892936C10.2014 0.000892936 8.64375 -0.0141173 7.07467 0.0789456C5.25214 0.172008 3.63464 0.610305 2.30192 2.01525C0.966342 3.42321 0.553425 5.12536 0.465146 7.04665C0.376867 8.70377 0.391106 10.3459 0.391106 12C0.391106 13.6541 0.376867 15.2992 0.465146 16.9533C0.553425 18.8746 0.96919 20.5798 2.30192 21.9847C3.63749 23.3927 5.25214 23.828 7.07467 23.9211C8.6466 24.0141 10.2043 23.9991 11.7734 23.9991C13.3453 23.9991 14.903 24.0141 16.4721 23.9211C18.2946 23.828 19.9121 23.3897 21.2448 21.9847C22.5804 20.5768 22.9933 18.8746 23.0816 16.9533C23.1727 15.2992 23.1557 13.6571 23.1557 12ZM11.7705 18.1572C8.53839 18.1572 5.92989 15.4073 5.92989 12C5.92989 8.5927 8.53839 5.84284 11.7705 5.84284C15.0027 5.84284 17.6112 8.5927 17.6112 12C17.6112 15.4073 15.0027 18.1572 11.7705 18.1572ZM17.8504 7.02864C17.0957 7.02864 16.4863 6.38621 16.4863 5.59067C16.4863 4.79513 17.0957 4.1527 17.8504 4.1527C18.605 4.1527 19.2144 4.79513 19.2144 5.59067C19.2147 5.77957 19.1795 5.96667 19.1111 6.14124C19.0426 6.31581 18.9421 6.47442 18.8154 6.608C18.6887 6.74157 18.5382 6.84748 18.3726 6.91967C18.2071 6.99185 18.0296 7.02888 17.8504 7.02864Z" fill="black"/>
</svg>
