<?xml version="1.0" encoding="UTF-8"?>
<svg id="Capa_2" data-name="Capa 2" xmlns="http://www.w3.org/2000/svg" viewBox="0 0 19.57 19.57">
  <defs>
    <style>
      .cls-1 {
        fill: #fff;
        stroke-width: 0px;
      }
    </style>
  </defs>
  <g id="Capa_1-2" data-name="Capa 1">
    <g>
      <path class="cls-1" d="M9.78,0c2.82,0,5.65,0,8.47,0,.18,0,.36-.03.53.03.46.16.77.57.79,1.27.03.69-.2,1.16-.67,1.41-.25.13-.5.1-.76.1-5.57,0-11.13,0-16.7,0C.48,2.82,0,2.36,0,1.42,0,.46.46,0,1.43,0c2.78,0,5.57,0,8.35,0Z"/>
      <path class="cls-1" d="M9.71,11.19c-2.78,0-5.57,0-8.35,0-.21,0-.44,0-.64-.08-.49-.2-.75-.7-.72-1.44.04-.73.36-1.14.86-1.27.11-.03.23-.01.35-.01,5.7,0,11.41,0,17.11,0,.14,0,.28-.02.41.02.49.15.81.58.83,1.32.02.69-.22,1.18-.7,1.37-.2.08-.42.09-.64.09-2.84,0-5.69,0-8.53,0Z"/>
      <path class="cls-1" d="M9.83,16.76c2.82,0,5.65,0,8.47,0,.23,0,.46-.03.69.12.41.27.6.71.59,1.32-.01.58-.22.99-.6,1.23-.24.15-.5.13-.75.13-5.63,0-11.25,0-16.88,0-.14,0-.28.01-.41-.01-.57-.1-.95-.7-.93-1.45.02-.76.42-1.3,1-1.34.37-.02.74,0,1.12,0,2.57,0,5.14,0,7.7,0Z"/>
    </g>
  </g>
</svg>