<svg width="164" height="108" viewBox="0 0 164 108" fill="none" xmlns="http://www.w3.org/2000/svg">
<mask id="path-1-outside-1_254_230" maskUnits="userSpaceOnUse" x="-0.439789" y="-0.158234" width="165" height="108" fill="black">
<rect fill="white" x="-0.439789" y="-0.158234" width="165" height="108"/>
<path d="M2.43402 66.1596C2.01911 65.5971 1.79213 64.921 1.78465 64.2252C1.7466 63.4768 1.76278 62.7266 1.83305 61.9804C1.88218 61.4365 1.96163 60.8957 2.07102 60.3604L2.09925 60.2291V60.1614L2.22832 59.6122C2.35739 59.0907 2.50259 58.5733 2.66796 58.0559C3.35989 55.9653 4.24982 53.9437 5.32594 52.0179C6.41632 50.0475 7.65537 48.1608 9.03259 46.3739C10.4313 44.5577 11.98 42.859 13.6629 41.2951C15.3569 39.7037 17.2188 38.2959 19.2168 37.096C21.224 35.8801 23.3971 34.9539 25.6702 34.3456C27.956 33.7343 30.3345 33.5335 32.6922 33.7526C35.0637 33.9407 37.3711 34.6058 39.4723 35.7069C40.4919 36.2777 41.4102 37.009 42.1908 37.8721C42.9662 38.7405 43.5769 39.7396 43.9937 40.8215C44.8052 43.062 45.0422 45.4659 44.6834 47.8187C44.3531 50.2272 43.664 52.5744 42.6385 54.7841C41.6395 57.0176 40.2967 59.0852 38.6576 60.9137C37.864 61.8059 36.928 62.5641 35.8867 63.1585C35.4006 63.4245 34.8685 63.5986 34.3177 63.672C33.8436 63.7407 33.36 63.648 32.9463 63.4093C32.8081 63.3006 32.7137 63.1467 32.6801 62.9755C32.6358 62.7453 32.6358 62.509 32.6801 62.2789C32.8016 61.7212 33.0069 61.1846 33.2892 60.6868C33.8914 59.633 34.6274 58.6592 35.4793 57.7892C37.1866 55.9931 39.2037 54.5106 41.4366 53.4109C43.6509 52.3403 46.1233 51.6994 48.5232 51.994C49.7186 52.1356 50.8733 52.5118 51.9192 53.1005C52.4419 53.3997 52.9372 53.7433 53.3995 54.1274L53.7423 54.4219C53.8512 54.5214 53.94 54.613 54.0368 54.7125C54.2197 54.9194 54.3817 55.1433 54.5208 55.3812C55.0676 56.4255 55.3708 57.5774 55.4081 58.7524C55.4707 59.9748 55.4086 61.2002 55.2226 62.4103C54.837 64.8646 54.1713 67.268 53.2382 69.5747C52.3311 71.8866 51.1835 74.0995 49.8138 76.1779C49.1366 77.205 48.3802 78.1791 47.5511 79.0914C46.7488 79.9936 45.8294 80.7872 44.8165 81.4517C43.8642 82.104 42.7473 82.4829 41.5898 82.5463C41.3195 82.5497 41.0495 82.5284 40.7832 82.4826C40.498 82.4328 40.2165 82.365 39.9402 82.2796C39.3993 82.127 38.888 81.8862 38.4277 81.5671C37.9969 81.2651 37.6479 80.8633 37.4113 80.3969C37.196 79.9341 37.1084 79.4233 37.1572 78.9163C37.3171 77.8357 37.8954 76.8583 38.7705 76.1898C39.6684 75.4797 40.7342 75.0059 41.8681 74.8127L42.2997 74.741L42.7635 74.6734L43.6952 74.538C44.3164 74.4465 44.9375 74.343 45.5546 74.2316C48.0425 73.8089 50.4767 73.1216 52.8146 72.1817C55.1539 71.2399 57.3225 69.9293 59.2357 68.301C59.7157 67.903 60.1554 67.4572 60.6031 67.0273C61.0508 66.5975 61.4581 66.1198 61.8413 65.6303C62.2245 65.1407 62.5955 64.6511 62.9585 64.1536C63.132 63.8989 63.2933 63.6362 63.4587 63.3775C63.624 63.1187 63.7894 62.86 63.9346 62.5814C65.1319 60.4647 66.0418 58.2018 66.641 55.8508C67.2304 53.5503 67.6177 51.2039 67.7986 48.8377C68.0198 46.4893 67.9317 44.1226 67.5364 41.7966C67.3289 40.5923 66.8952 39.4368 66.2578 38.3895C65.8951 37.8059 65.3739 37.3343 64.7534 37.0283C64.4028 36.8635 64.0158 36.7882 63.6281 36.8094C63.2464 36.8319 62.8752 36.9408 62.5431 37.1278C61.9634 37.4724 61.4797 37.9539 61.1355 38.5288C60.8136 39.0479 60.5576 39.604 60.3731 40.1846C60.0206 41.2946 59.8172 42.4454 59.7681 43.6076C59.6572 45.8539 59.8553 48.1046 60.357 50.2984C60.599 51.3598 60.8881 52.4132 61.2242 53.4587C61.5523 54.4987 61.947 55.517 62.406 56.5076C62.8583 57.5432 63.4888 58.4939 64.2694 59.3176C64.7147 59.7679 65.2705 60.097 65.8827 60.2729C66.5373 60.4264 67.2256 60.3519 67.8308 60.0619C68.3674 59.8079 68.8548 59.463 69.2707 59.043C69.6635 58.6588 70.0237 58.2435 70.3476 57.8011C70.9635 56.949 71.511 56.0507 71.9852 55.1145C72.8994 53.3091 73.6746 51.4384 74.3044 49.5183C74.6389 48.5741 74.9084 47.6087 75.111 46.6286C75.2861 45.6657 75.4113 44.6946 75.4861 43.7191C75.6394 41.7966 75.6959 39.9179 75.7201 38.0671C75.7725 34.3735 75.7201 30.8112 75.6676 27.3882C75.6152 23.9652 75.6233 20.6695 75.5224 17.5132C75.4982 16.7171 75.466 15.9211 75.4135 15.1569C75.3881 14.7501 75.341 14.3448 75.2724 13.9429C75.2609 13.8811 75.2461 13.82 75.228 13.7598C75.2037 13.6628 75.1671 13.5692 75.1191 13.4812C75.0586 13.4215 75.0667 13.2703 74.6432 13.131C74.5166 13.1056 74.3852 13.1169 74.265 13.1635C74.1448 13.2101 74.0408 13.29 73.9656 13.3936C73.8728 13.5807 73.9293 13.2941 73.8002 13.7917V13.8633L73.772 14.4285C73.6953 15.933 73.6389 17.3978 73.5945 18.8267C73.5058 21.6805 73.4937 24.399 73.538 26.9264C73.6106 31.0062 73.8163 35.0302 74.5746 38.9269C74.9455 40.8599 75.4853 42.7576 76.1879 44.5987C76.5348 45.5102 76.9301 46.3978 77.3576 47.2655C77.5593 47.7033 77.8013 48.1172 78.0231 48.5431C78.2567 49.0174 78.5567 49.4569 78.9145 49.8486C79.1478 50.0964 79.4384 50.2849 79.7615 50.3979C80.1585 50.5029 80.5813 50.4501 80.9392 50.2506C81.207 50.0856 81.4421 49.8738 81.633 49.6257C81.7975 49.4168 81.9458 49.1959 82.0766 48.965C82.5243 48.108 82.8851 47.2094 83.1535 46.2823C83.6703 44.5236 84.093 42.7394 84.42 40.9369C85.0895 37.3984 85.5614 33.9197 85.9728 30.5166C86.7795 23.7144 87.32 17.2067 87.7032 10.9896C87.7919 9.43331 87.8847 7.9049 87.9129 6.36057C87.9182 6.26468 87.9044 6.1687 87.8726 6.07797C87.8085 5.90586 87.6798 5.76472 87.513 5.68391C87.3462 5.60311 87.1543 5.58886 86.9772 5.64413C86.8823 5.67195 86.7942 5.71884 86.7186 5.78186C86.6429 5.84488 86.5813 5.92266 86.5375 6.01031C86.5 6.0794 86.4767 6.15516 86.469 6.2332V6.30484L86.4407 6.44813L86.3439 7.02129C86.2875 7.39941 86.231 7.77355 86.1786 8.15168C86.0737 8.89996 85.985 9.64028 85.9043 10.3806C85.5776 13.3339 85.3638 16.2236 85.2388 19.0416C85.1137 21.8596 85.0855 24.6139 85.1984 27.2966C85.2798 29.9275 85.6052 32.5455 86.1705 35.1178C86.4493 36.3926 86.911 37.6216 87.5418 38.7677C87.8769 39.3692 88.326 39.9016 88.8648 40.3359C89.4349 40.8048 90.1409 41.0834 90.8814 41.1319H91.1517H91.4179C91.633 41.1219 91.8453 41.0789 92.0471 41.0045C92.3943 40.8503 92.709 40.6329 92.9748 40.3637C93.4224 39.9125 93.8137 39.4101 94.1404 38.8672C94.7546 37.8672 95.2938 36.8242 95.7537 35.7467C96.617 33.7211 97.3564 31.6464 97.968 29.5335C98.5537 27.5589 99.0343 25.5554 99.408 23.5313C99.5895 22.5482 99.7306 21.573 99.8113 20.6019C99.8597 20.1202 99.896 19.6347 99.9081 19.153C99.9081 18.9103 99.9081 18.6675 99.9081 18.4247C99.9116 18.1693 99.8982 17.914 99.8678 17.6605C99.8544 17.5458 99.8259 17.4335 99.7831 17.3261C99.7325 17.205 99.6469 17.1012 99.537 17.0276C99.2628 16.7609 98.7304 17.0276 98.7304 17.0953C98.6724 17.1483 98.6234 17.2101 98.5852 17.2784C98.5671 17.3106 98.551 17.3438 98.5368 17.3779C98.4811 17.5185 98.4379 17.6637 98.4077 17.8117C98.3512 18.0585 98.3109 18.2893 98.2746 18.5202C98.198 18.9819 98.1415 19.4317 98.089 19.8814C97.9896 20.773 97.9116 21.6487 97.8551 22.5084C97.7341 24.2332 97.6803 25.8956 97.6938 27.4956C97.691 29.0478 97.7948 30.5983 98.0043 32.1366C98.1067 32.8818 98.274 33.6169 98.5045 34.3337C98.6163 34.7053 98.7678 35.0642 98.9562 35.4044C99.1759 35.7971 99.4956 36.1264 99.8839 36.3596C100.102 36.4799 100.343 36.556 100.592 36.5833C100.84 36.6106 101.092 36.5887 101.332 36.5188C101.722 36.4041 102.087 36.2192 102.409 35.9735C102.952 35.5582 103.442 35.0798 103.869 34.5486C104.629 33.6068 105.319 32.6118 105.934 31.5714C106.515 30.6042 107.031 29.6768 107.499 28.7852C107.967 27.8936 108.354 27.0459 108.757 26.2498L109.318 25.0836C109.407 24.8925 109.491 24.6856 109.576 24.4866L109.79 23.9134C110.238 22.625 110.615 21.3136 110.919 19.9849C111.173 18.8665 111.351 17.9431 111.476 17.1988C111.601 16.4544 111.677 15.9211 111.722 15.5589L111.79 15.0255C111.79 15.0255 111.815 14.8226 111.851 14.4086L111.927 13.6126C111.927 13.2941 111.964 12.924 111.988 12.4981C112.012 12.0722 111.988 11.5866 112.012 11.0453C112.036 10.504 111.984 9.899 111.891 9.23828C111.862 8.89053 111.811 8.54491 111.738 8.20342L111.633 7.65415C111.614 7.55212 111.59 7.45115 111.56 7.35165C111.523 7.21257 111.467 7.07881 111.395 6.95362C111.379 6.92204 111.358 6.89262 111.335 6.86606C111.305 6.82351 111.269 6.78475 111.23 6.75063C111.193 6.71927 111.154 6.69129 111.113 6.66705C111.063 6.63878 111.01 6.61609 110.955 6.59938C110.809 6.56 110.653 6.56838 110.512 6.62326C110.459 6.65805 110.412 6.69954 110.371 6.74665C110.343 6.76708 110.318 6.78971 110.294 6.81432L110.225 6.88994L110.193 6.9377L110.137 7.03323L110.108 7.09691C110.058 7.22593 110.019 7.35912 109.991 7.49494C109.943 7.72181 109.915 7.92878 109.891 8.14371C109.842 8.56562 109.81 8.99548 109.782 9.43729C109.608 12.9598 109.697 17.3978 110 22.8069C110.302 28.216 110.871 34.6441 111.944 42.0712C112.484 45.7848 113.154 49.7531 114.037 53.9642C114.92 58.1753 116.017 62.6093 117.481 67.2462C117.85 68.4085 118.245 69.58 118.667 70.7608L119.252 72.3529L118.974 72.2494C117.832 71.7877 116.63 71.1827 115.404 70.6573C114.178 70.1319 112.908 69.5986 111.601 69.1329C108.908 68.1648 106.117 67.4882 103.276 67.1149C100.276 66.723 97.237 66.723 94.2372 67.1149C91.0881 67.5559 88.0112 68.4029 85.0855 69.6344C82.0287 70.9103 79.1222 72.5119 76.4178 74.4107C70.88 78.2874 65.8948 83.3383 61.3613 89.0699C59.0946 91.9436 56.9314 94.9845 54.8717 98.1926C53.8391 99.7847 52.8281 101.421 51.8386 103.1L51.4715 103.729L50.7536 104.967L50.3906 105.6L50.3019 105.755C50.3019 105.791 50.3019 105.807 50.3019 105.831V105.97V106.523C50.3019 106.563 50.3019 106.627 50.3019 106.651C50.3019 106.674 50.3422 106.718 50.3825 106.77C50.4727 106.885 50.5887 106.978 50.7213 107.041C50.7956 107.08 50.876 107.107 50.9593 107.12H51.1368C51.2287 107.117 51.3196 107.101 51.407 107.072C51.575 107.018 51.7253 106.92 51.8426 106.79L52.9114 105.759L71.0131 88.3415C83.7827 76.0664 101.36 59.1624 121.587 39.8503C126.653 35.0262 131.872 30.043 137.269 25C142.666 19.9571 148.365 14.9937 154.274 10.0662L158.71 6.34863C159.457 5.72373 160.203 5.09485 160.941 4.45005C161.312 4.12766 161.679 3.7973 162.042 3.455L162.316 3.19628L162.385 3.12862C162.417 3.10094 162.447 3.07029 162.473 3.03707L162.711 2.78632L162.949 2.53158L163.143 2.26491C163.208 2.18372 163.266 2.09716 163.316 2.00619L163.405 1.76738C163.437 1.70046 163.45 1.62602 163.441 1.55244V1.45294L163.413 1.35741C163.392 1.28689 163.358 1.2208 163.312 1.16238C163.275 1.11193 163.23 1.06759 163.179 1.03103C162.838 0.853547 162.444 0.798677 162.066 0.875803C161.836 0.895704 161.562 0.931526 161.356 0.959388L160.981 1.01511L160.239 1.14248C159.255 1.31761 158.283 1.5405 157.315 1.73951C155.375 2.17336 153.447 2.64701 151.515 3.14454C143.803 5.13466 136.107 7.43921 128.42 9.87114C106.495 16.8565 84.658 25.0279 63.7531 33.5734C58.5313 35.7148 53.3659 37.8761 48.257 40.0573L40.2548 43.5161L39.6336 43.7907L37.7904 44.5868C36.3527 45.2116 35.0113 46.033 33.8054 47.0266C35.3576 46.8064 36.8721 46.3779 38.3067 45.753L40.1499 44.9569L40.7751 44.6823L48.7652 41.2274C53.8553 39.0542 59.0126 36.8969 64.2371 34.7556C85.1178 26.218 106.93 18.0585 128.823 11.0891C136.487 8.66115 144.174 6.36455 151.85 4.38239C153.765 3.88884 155.685 3.41519 157.605 2.98931C158.565 2.77438 159.525 2.57138 160.481 2.40023L161.195 2.27685L161.55 2.2251L161.183 2.57934C160.832 2.90174 160.477 3.22414 160.114 3.54256C159.384 4.17542 158.646 4.80032 157.904 5.42521L153.467 9.13877C147.546 14.0782 141.819 19.0575 136.41 24.1164C131.001 29.1753 125.786 34.1546 120.72 38.9786C100.489 58.2947 82.9156 75.1988 70.146 87.4738L52.5646 104.394L52.9316 103.769C53.9131 102.108 54.9147 100.485 55.9365 98.9011C57.9814 95.7169 60.115 92.7118 62.3576 89.8779C66.8346 84.214 71.7432 79.2506 77.1479 75.4694C79.774 73.6144 82.598 72.0488 85.5695 70.8006C88.3974 69.6286 91.3682 68.8258 94.4066 68.4125C97.2959 68.0298 100.224 68.0231 103.115 68.3926C105.867 68.753 108.572 69.4082 111.181 70.3468C112.456 70.8006 113.69 71.3061 114.896 71.8394C116.102 72.3728 117.26 72.9459 118.526 73.4594L118.772 73.5509L118.95 73.6106L119.163 73.6703C119.442 73.759 119.74 73.7673 120.022 73.6942C120.148 73.6551 120.262 73.5886 120.358 73.4997C120.454 73.4108 120.528 73.3018 120.575 73.1808C120.658 72.9136 120.658 72.628 120.575 72.3608C120.462 72.0026 120.426 71.919 120.361 71.7479L120.188 71.2822L119.869 70.4065C119.466 69.2403 119.062 68.0821 118.695 66.9318C117.235 62.3386 116.146 57.9245 115.263 53.7493C114.38 49.574 113.718 45.6296 113.182 41.9359C112.117 34.5486 111.569 28.1683 111.25 22.779C110.953 18.3753 110.88 13.9597 111.032 9.54874C111.056 9.11887 111.089 8.70891 111.133 8.32681C111.153 8.13575 111.181 7.94868 111.214 7.79345C111.225 7.73825 111.24 7.68376 111.258 7.63026L111.21 7.60638L111.105 7.55464C111.051 7.53361 110.999 7.50692 110.951 7.47503C110.899 7.43523 110.867 7.41931 110.843 7.39543C110.827 7.38282 110.813 7.36807 110.802 7.35165C110.802 7.30388 110.802 7.35165 110.754 7.39941C110.725 7.43352 110.691 7.46306 110.653 7.48698L110.504 7.5825C110.451 7.61501 110.396 7.64298 110.338 7.66609C110.341 7.67524 110.341 7.68479 110.338 7.69395C110.349 7.72393 110.359 7.75449 110.367 7.78549C110.39 7.86274 110.408 7.94112 110.423 8.02033L110.516 8.51388C110.583 8.82767 110.631 9.14541 110.657 9.46515C110.742 10.0701 110.738 10.6592 110.77 11.1528C110.802 11.6463 110.77 12.1279 110.77 12.5379C110.77 12.9479 110.726 13.3021 110.709 13.6046L110.637 14.3608C110.601 14.7589 110.576 14.9619 110.576 14.9619L110.508 15.4793C110.467 15.8256 110.391 16.3549 110.27 17.0714C110.149 17.7878 109.975 18.6635 109.729 19.774C109.436 21.0556 109.073 22.3206 108.64 23.5632L108.443 24.0965C108.366 24.2716 108.297 24.4388 108.213 24.6259L107.656 25.7762C107.273 26.5722 106.85 27.4041 106.394 28.2757C105.938 29.1474 105.43 30.0629 104.865 30.9982C104.287 31.9719 103.639 32.9031 102.925 33.7844C102.571 34.2343 102.165 34.6417 101.715 34.9984C101.517 35.1517 101.293 35.2689 101.054 35.3446C100.972 35.3723 100.885 35.3828 100.799 35.3752C100.713 35.3677 100.629 35.3423 100.553 35.3009C100.235 35.1337 99.9121 34.5605 99.7185 33.9635C99.5116 33.3141 99.3618 32.6482 99.2708 31.9734C99.0696 30.4918 98.9698 28.9984 98.9724 27.5036C98.9724 25.938 99.0248 24.3088 99.1297 22.6159C99.1902 21.7681 99.2627 20.9083 99.3636 20.0406C99.412 19.6068 99.4685 19.169 99.537 18.7351C99.5733 18.5202 99.6096 18.3053 99.654 18.1062C99.6742 18.0187 99.7104 17.8993 99.7145 17.8873L99.4362 17.756C99.3683 17.7182 99.3023 17.677 99.2386 17.6326C99.1902 17.5809 99.2144 17.5689 99.1942 17.5928C99.1495 17.6348 99.0957 17.6661 99.0369 17.6843C98.9421 17.7206 98.8451 17.7512 98.7465 17.7759L98.6497 17.8037V17.8475C98.6704 18.0525 98.6798 18.2585 98.6779 18.4645C98.6779 18.6874 98.6779 18.9063 98.6779 19.1331C98.6779 19.5869 98.6336 20.0446 98.5892 20.5063C98.5005 21.4297 98.3633 22.377 98.1859 23.3323C97.8183 25.3133 97.3471 27.2742 96.7742 29.2071C96.1772 31.27 95.4553 33.2956 94.6123 35.273C94.1782 36.2929 93.6715 37.2812 93.0958 38.2303C92.8211 38.6868 92.4935 39.1103 92.1197 39.4921C91.9695 39.6465 91.7935 39.7744 91.5994 39.8702C91.4007 39.9208 91.1944 39.9356 90.9903 39.914C90.0344 39.8781 89.2197 39.1498 88.6591 38.1746C88.0714 37.1255 87.6407 35.9981 87.3805 34.8272C86.84 32.3396 86.5335 29.808 86.4649 27.2648C86.352 24.6259 86.3802 21.9034 86.5012 19.1132C86.6222 16.3231 86.84 13.4573 87.1627 10.5358C87.2434 9.80745 87.3321 9.07111 87.4329 8.33477C87.4854 7.97256 87.5378 7.6024 87.5943 7.23622L87.687 6.69093L87.7112 6.55958V6.49192C88.163 6.55958 87.1103 6.32077 87.1909 6.34465C87.1909 6.32077 87.1909 6.36853 87.1909 6.34465C87.1909 6.32077 87.1909 6.34465 87.1909 6.34465C87.2837 6.34465 86.1866 6.34465 86.6505 6.37649C86.6222 7.8651 86.5335 9.40545 86.4448 10.9498C86.0414 17.139 85.5211 23.6308 84.7185 30.4052C84.3151 33.7884 83.8392 37.2472 83.1818 40.7538C82.8622 42.5118 82.4502 44.2521 81.9476 45.9679C81.7054 46.8094 81.3798 47.6253 80.9755 48.4038C80.8172 48.7152 80.5897 48.9873 80.31 49.1999C80.2562 49.2339 80.1914 49.2467 80.1285 49.2357C80.0078 49.1824 79.9004 49.1036 79.8139 49.0048C79.5406 48.696 79.3113 48.3519 79.1323 47.9819C78.9226 47.5839 78.6846 47.1859 78.491 46.748C78.0876 45.9162 77.6843 45.0644 77.3697 44.1887C76.6937 42.4146 76.1741 40.5862 75.8169 38.7239C75.0828 34.9506 74.8771 30.9863 74.8045 26.9384C74.7601 24.4149 74.7722 21.7362 74.861 18.8943C74.9013 17.4774 74.9618 16.0166 75.0384 14.5161L75.0667 13.9549V13.8872C74.748 14.2534 74.744 13.8872 74.623 13.9071C74.5302 13.8394 74.5101 13.7877 74.5181 13.7956C74.4743 13.8517 74.4176 13.8967 74.3528 13.927C74.2419 13.9834 74.1273 14.0326 74.0099 14.0743V14.0981L74.0341 14.1937C74.0906 14.5002 74.1229 14.8862 74.1511 15.2564C74.2035 16.0087 74.2358 16.7808 74.26 17.561C74.3568 20.6974 74.3649 23.9851 74.4012 27.416C74.4375 30.847 74.506 34.3974 74.4576 38.0631C74.4294 39.8941 74.377 41.7568 74.2237 43.6355C74.139 44.5669 74.0462 45.5062 73.8688 46.4216C73.6803 47.3489 73.4283 48.2625 73.1145 49.1561C72.5035 51.0139 71.7539 52.8245 70.872 54.5732C70.4282 55.4485 69.9158 56.2883 69.3393 57.0847C68.8256 57.8551 68.1345 58.4947 67.3226 58.9514C66.9769 59.1215 66.5825 59.1693 66.2054 59.0868C65.8061 58.9647 65.4441 58.7457 65.1527 58.4499C64.4781 57.7302 63.9325 56.9024 63.5393 56.0021C63.1032 55.0608 62.7287 54.093 62.4181 53.1045C62.0954 52.1014 61.8131 51.0825 61.5791 50.0476C61.0851 47.9779 60.8748 45.852 60.954 43.727C60.999 42.6746 61.182 41.6324 61.4985 40.6264C61.6517 40.1423 61.8644 39.6785 62.1317 39.2453C62.3624 38.8486 62.6895 38.5148 63.0836 38.2741C63.2419 38.1752 63.4231 38.1179 63.6101 38.1074C63.7972 38.097 63.9838 38.1338 64.1524 38.2144C64.5536 38.4283 64.8892 38.7444 65.1245 39.1299C65.6688 40.0415 66.0393 41.0438 66.2175 42.0872C66.5919 44.303 66.6733 46.5574 66.4595 48.7939C66.0844 53.3353 65.0841 57.9484 62.7569 62.0162C62.6197 62.2709 62.4665 62.5177 62.3051 62.7605C62.1438 63.0033 61.9986 63.2541 61.8332 63.4969C61.4904 63.9665 61.1597 64.4481 60.7765 64.8899C60.3933 65.3317 60.0102 65.7696 59.6149 66.2034C59.2196 66.6373 58.78 67.0273 58.3282 67.3975C56.5273 68.9272 54.4886 70.1609 52.2903 71.0513C50.0349 71.9546 47.6874 72.6152 45.2884 73.0216C44.6874 73.129 44.0784 73.2285 43.4653 73.3241L42.5457 73.4554L42.0859 73.5231L41.5939 73.6067C40.2492 73.8369 38.986 74.4013 37.9235 75.2465C36.7928 76.132 36.0551 77.4165 35.8665 78.8287C35.7951 79.565 35.9232 80.3067 36.2376 80.9781C36.5671 81.6303 37.0531 82.1933 37.6533 82.6179C38.2278 83.0185 38.8657 83.3225 39.5409 83.5174C39.8676 83.6176 40.2003 83.6974 40.5371 83.7563C40.8889 83.8145 41.2453 83.8412 41.6019 83.8359C42.9932 83.7687 44.338 83.3208 45.486 82.5423C46.5927 81.8189 47.5977 80.9543 48.4748 79.9711C49.3465 79.0103 50.1434 77.9857 50.8585 76.9063C52.2744 74.742 53.4585 72.4383 54.3917 70.0324C55.361 67.6377 56.0511 65.142 56.4487 62.5933C56.6468 61.2989 56.7117 59.9881 56.6423 58.6808C56.5981 57.3132 56.238 55.9736 55.5896 54.7642C55.409 54.452 55.1969 54.1586 54.9564 53.8886C54.8313 53.7572 54.6982 53.6219 54.553 53.4905L54.1739 53.1602C53.6521 52.7286 53.0934 52.3424 52.5041 52.0059C51.9077 51.6741 51.2812 51.3983 50.6326 51.182C49.9764 50.9718 49.301 50.8251 48.6159 50.7442C47.2688 50.5923 45.9053 50.665 44.5826 50.9591C43.2792 51.2496 42.0158 51.6932 40.8195 52.2806C38.4644 53.4588 36.3396 55.0395 34.5436 56.9494C33.6152 57.9057 32.8154 58.9758 32.1639 60.1336C31.8165 60.7422 31.5662 61.4 31.4217 62.0839C31.34 62.4778 31.34 62.884 31.4217 63.2779C31.5213 63.717 31.7687 64.1099 32.1235 64.3924C32.4661 64.6368 32.8631 64.7965 33.2811 64.8581C33.6539 64.9224 34.0337 64.9371 34.4104 64.9019C35.127 64.8138 35.8199 64.5908 36.4513 64.2451C37.6201 63.5863 38.6707 62.7417 39.561 61.7456C41.2895 59.8259 42.7059 57.6534 43.7598 55.3055C44.8401 52.9829 45.5646 50.5147 45.9095 47.9819C46.2954 45.423 46.0321 42.8095 45.1432 40.3757C44.9049 39.7687 44.6148 39.1828 44.276 38.6244C43.9324 38.0692 43.5425 37.5434 43.1104 37.0522C42.2375 36.0788 41.2088 35.2532 40.0652 34.6083C37.808 33.4189 35.3274 32.6995 32.7769 32.4948C30.2716 32.2636 27.7446 32.4765 25.3152 33.1237C22.9301 33.7641 20.6498 34.7371 18.5432 36.0133C16.4746 37.2679 14.5466 38.7356 12.7917 40.3916C11.0628 42.0037 9.47228 43.7543 8.03635 45.6256C6.61867 47.4619 5.3445 49.4019 4.22483 51.4288C3.10943 53.4272 2.1871 55.5247 1.47005 57.6937C1.29258 58.235 1.13931 58.7843 1.00218 59.3335L0.86908 59.9226V59.9943L0.840847 60.1375C0.721103 60.7184 0.637589 61.3059 0.590779 61.8968C0.502156 62.7591 0.606806 63.6302 0.897314 64.4481C1.03335 64.8066 1.22671 65.1412 1.47005 65.4392C1.7302 65.7501 2.06028 65.9968 2.43402 66.1596Z"/>
</mask>
<path d="M2.43402 66.1596C2.01911 65.5971 1.79213 64.921 1.78465 64.2252C1.7466 63.4768 1.76278 62.7266 1.83305 61.9804C1.88218 61.4365 1.96163 60.8957 2.07102 60.3604L2.09925 60.2291V60.1614L2.22832 59.6122C2.35739 59.0907 2.50259 58.5733 2.66796 58.0559C3.35989 55.9653 4.24982 53.9437 5.32594 52.0179C6.41632 50.0475 7.65537 48.1608 9.03259 46.3739C10.4313 44.5577 11.98 42.859 13.6629 41.2951C15.3569 39.7037 17.2188 38.2959 19.2168 37.096C21.224 35.8801 23.3971 34.9539 25.6702 34.3456C27.956 33.7343 30.3345 33.5335 32.6922 33.7526C35.0637 33.9407 37.3711 34.6058 39.4723 35.7069C40.4919 36.2777 41.4102 37.009 42.1908 37.8721C42.9662 38.7405 43.5769 39.7396 43.9937 40.8215C44.8052 43.062 45.0422 45.4659 44.6834 47.8187C44.3531 50.2272 43.664 52.5744 42.6385 54.7841C41.6395 57.0176 40.2967 59.0852 38.6576 60.9137C37.864 61.8059 36.928 62.5641 35.8867 63.1585C35.4006 63.4245 34.8685 63.5986 34.3177 63.672C33.8436 63.7407 33.36 63.648 32.9463 63.4093C32.8081 63.3006 32.7137 63.1467 32.6801 62.9755C32.6358 62.7453 32.6358 62.509 32.6801 62.2789C32.8016 61.7212 33.0069 61.1846 33.2892 60.6868C33.8914 59.633 34.6274 58.6592 35.4793 57.7892C37.1866 55.9931 39.2037 54.5106 41.4366 53.4109C43.6509 52.3403 46.1233 51.6994 48.5232 51.994C49.7186 52.1356 50.8733 52.5118 51.9192 53.1005C52.4419 53.3997 52.9372 53.7433 53.3995 54.1274L53.7423 54.4219C53.8512 54.5214 53.94 54.613 54.0368 54.7125C54.2197 54.9194 54.3817 55.1433 54.5208 55.3812C55.0676 56.4255 55.3708 57.5774 55.4081 58.7524C55.4707 59.9748 55.4086 61.2002 55.2226 62.4103C54.837 64.8646 54.1713 67.268 53.2382 69.5747C52.3311 71.8866 51.1835 74.0995 49.8138 76.1779C49.1366 77.205 48.3802 78.1791 47.5511 79.0914C46.7488 79.9936 45.8294 80.7872 44.8165 81.4517C43.8642 82.104 42.7473 82.4829 41.5898 82.5463C41.3195 82.5497 41.0495 82.5284 40.7832 82.4826C40.498 82.4328 40.2165 82.365 39.9402 82.2796C39.3993 82.127 38.888 81.8862 38.4277 81.5671C37.9969 81.2651 37.6479 80.8633 37.4113 80.3969C37.196 79.9341 37.1084 79.4233 37.1572 78.9163C37.3171 77.8357 37.8954 76.8583 38.7705 76.1898C39.6684 75.4797 40.7342 75.0059 41.8681 74.8127L42.2997 74.741L42.7635 74.6734L43.6952 74.538C44.3164 74.4465 44.9375 74.343 45.5546 74.2316C48.0425 73.8089 50.4767 73.1216 52.8146 72.1817C55.1539 71.2399 57.3225 69.9293 59.2357 68.301C59.7157 67.903 60.1554 67.4572 60.6031 67.0273C61.0508 66.5975 61.4581 66.1198 61.8413 65.6303C62.2245 65.1407 62.5955 64.6511 62.9585 64.1536C63.132 63.8989 63.2933 63.6362 63.4587 63.3775C63.624 63.1187 63.7894 62.86 63.9346 62.5814C65.1319 60.4647 66.0418 58.2018 66.641 55.8508C67.2304 53.5503 67.6177 51.2039 67.7986 48.8377C68.0198 46.4893 67.9317 44.1226 67.5364 41.7966C67.3289 40.5923 66.8952 39.4368 66.2578 38.3895C65.8951 37.8059 65.3739 37.3343 64.7534 37.0283C64.4028 36.8635 64.0158 36.7882 63.6281 36.8094C63.2464 36.8319 62.8752 36.9408 62.5431 37.1278C61.9634 37.4724 61.4797 37.9539 61.1355 38.5288C60.8136 39.0479 60.5576 39.604 60.3731 40.1846C60.0206 41.2946 59.8172 42.4454 59.7681 43.6076C59.6572 45.8539 59.8553 48.1046 60.357 50.2984C60.599 51.3598 60.8881 52.4132 61.2242 53.4587C61.5523 54.4987 61.947 55.517 62.406 56.5076C62.8583 57.5432 63.4888 58.4939 64.2694 59.3176C64.7147 59.7679 65.2705 60.097 65.8827 60.2729C66.5373 60.4264 67.2256 60.3519 67.8308 60.0619C68.3674 59.8079 68.8548 59.463 69.2707 59.043C69.6635 58.6588 70.0237 58.2435 70.3476 57.8011C70.9635 56.949 71.511 56.0507 71.9852 55.1145C72.8994 53.3091 73.6746 51.4384 74.3044 49.5183C74.6389 48.5741 74.9084 47.6087 75.111 46.6286C75.2861 45.6657 75.4113 44.6946 75.4861 43.7191C75.6394 41.7966 75.6959 39.9179 75.7201 38.0671C75.7725 34.3735 75.7201 30.8112 75.6676 27.3882C75.6152 23.9652 75.6233 20.6695 75.5224 17.5132C75.4982 16.7171 75.466 15.9211 75.4135 15.1569C75.3881 14.7501 75.341 14.3448 75.2724 13.9429C75.2609 13.8811 75.2461 13.82 75.228 13.7598C75.2037 13.6628 75.1671 13.5692 75.1191 13.4812C75.0586 13.4215 75.0667 13.2703 74.6432 13.131C74.5166 13.1056 74.3852 13.1169 74.265 13.1635C74.1448 13.2101 74.0408 13.29 73.9656 13.3936C73.8728 13.5807 73.9293 13.2941 73.8002 13.7917V13.8633L73.772 14.4285C73.6953 15.933 73.6389 17.3978 73.5945 18.8267C73.5058 21.6805 73.4937 24.399 73.538 26.9264C73.6106 31.0062 73.8163 35.0302 74.5746 38.9269C74.9455 40.8599 75.4853 42.7576 76.1879 44.5987C76.5348 45.5102 76.9301 46.3978 77.3576 47.2655C77.5593 47.7033 77.8013 48.1172 78.0231 48.5431C78.2567 49.0174 78.5567 49.4569 78.9145 49.8486C79.1478 50.0964 79.4384 50.2849 79.7615 50.3979C80.1585 50.5029 80.5813 50.4501 80.9392 50.2506C81.207 50.0856 81.4421 49.8738 81.633 49.6257C81.7975 49.4168 81.9458 49.1959 82.0766 48.965C82.5243 48.108 82.8851 47.2094 83.1535 46.2823C83.6703 44.5236 84.093 42.7394 84.42 40.9369C85.0895 37.3984 85.5614 33.9197 85.9728 30.5166C86.7795 23.7144 87.32 17.2067 87.7032 10.9896C87.7919 9.43331 87.8847 7.9049 87.9129 6.36057C87.9182 6.26468 87.9044 6.1687 87.8726 6.07797C87.8085 5.90586 87.6798 5.76472 87.513 5.68391C87.3462 5.60311 87.1543 5.58886 86.9772 5.64413C86.8823 5.67195 86.7942 5.71884 86.7186 5.78186C86.6429 5.84488 86.5813 5.92266 86.5375 6.01031C86.5 6.0794 86.4767 6.15516 86.469 6.2332V6.30484L86.4407 6.44813L86.3439 7.02129C86.2875 7.39941 86.231 7.77355 86.1786 8.15168C86.0737 8.89996 85.985 9.64028 85.9043 10.3806C85.5776 13.3339 85.3638 16.2236 85.2388 19.0416C85.1137 21.8596 85.0855 24.6139 85.1984 27.2966C85.2798 29.9275 85.6052 32.5455 86.1705 35.1178C86.4493 36.3926 86.911 37.6216 87.5418 38.7677C87.8769 39.3692 88.326 39.9016 88.8648 40.3359C89.4349 40.8048 90.1409 41.0834 90.8814 41.1319H91.1517H91.4179C91.633 41.1219 91.8453 41.0789 92.0471 41.0045C92.3943 40.8503 92.709 40.6329 92.9748 40.3637C93.4224 39.9125 93.8137 39.4101 94.1404 38.8672C94.7546 37.8672 95.2938 36.8242 95.7537 35.7467C96.617 33.7211 97.3564 31.6464 97.968 29.5335C98.5537 27.5589 99.0343 25.5554 99.408 23.5313C99.5895 22.5482 99.7306 21.573 99.8113 20.6019C99.8597 20.1202 99.896 19.6347 99.9081 19.153C99.9081 18.9103 99.9081 18.6675 99.9081 18.4247C99.9116 18.1693 99.8982 17.914 99.8678 17.6605C99.8544 17.5458 99.8259 17.4335 99.7831 17.3261C99.7325 17.205 99.6469 17.1012 99.537 17.0276C99.2628 16.7609 98.7304 17.0276 98.7304 17.0953C98.6724 17.1483 98.6234 17.2101 98.5852 17.2784C98.5671 17.3106 98.551 17.3438 98.5368 17.3779C98.4811 17.5185 98.4379 17.6637 98.4077 17.8117C98.3512 18.0585 98.3109 18.2893 98.2746 18.5202C98.198 18.9819 98.1415 19.4317 98.089 19.8814C97.9896 20.773 97.9116 21.6487 97.8551 22.5084C97.7341 24.2332 97.6803 25.8956 97.6938 27.4956C97.691 29.0478 97.7948 30.5983 98.0043 32.1366C98.1067 32.8818 98.274 33.6169 98.5045 34.3337C98.6163 34.7053 98.7678 35.0642 98.9562 35.4044C99.1759 35.7971 99.4956 36.1264 99.8839 36.3596C100.102 36.4799 100.343 36.556 100.592 36.5833C100.84 36.6106 101.092 36.5887 101.332 36.5188C101.722 36.4041 102.087 36.2192 102.409 35.9735C102.952 35.5582 103.442 35.0798 103.869 34.5486C104.629 33.6068 105.319 32.6118 105.934 31.5714C106.515 30.6042 107.031 29.6768 107.499 28.7852C107.967 27.8936 108.354 27.0459 108.757 26.2498L109.318 25.0836C109.407 24.8925 109.491 24.6856 109.576 24.4866L109.79 23.9134C110.238 22.625 110.615 21.3136 110.919 19.9849C111.173 18.8665 111.351 17.9431 111.476 17.1988C111.601 16.4544 111.677 15.9211 111.722 15.5589L111.79 15.0255C111.79 15.0255 111.815 14.8226 111.851 14.4086L111.927 13.6126C111.927 13.2941 111.964 12.924 111.988 12.4981C112.012 12.0722 111.988 11.5866 112.012 11.0453C112.036 10.504 111.984 9.899 111.891 9.23828C111.862 8.89053 111.811 8.54491 111.738 8.20342L111.633 7.65415C111.614 7.55212 111.59 7.45115 111.56 7.35165C111.523 7.21257 111.467 7.07881 111.395 6.95362C111.379 6.92204 111.358 6.89262 111.335 6.86606C111.305 6.82351 111.269 6.78475 111.23 6.75063C111.193 6.71927 111.154 6.69129 111.113 6.66705C111.063 6.63878 111.01 6.61609 110.955 6.59938C110.809 6.56 110.653 6.56838 110.512 6.62326C110.459 6.65805 110.412 6.69954 110.371 6.74665C110.343 6.76708 110.318 6.78971 110.294 6.81432L110.225 6.88994L110.193 6.9377L110.137 7.03323L110.108 7.09691C110.058 7.22593 110.019 7.35912 109.991 7.49494C109.943 7.72181 109.915 7.92878 109.891 8.14371C109.842 8.56562 109.81 8.99548 109.782 9.43729C109.608 12.9598 109.697 17.3978 110 22.8069C110.302 28.216 110.871 34.6441 111.944 42.0712C112.484 45.7848 113.154 49.7531 114.037 53.9642C114.92 58.1753 116.017 62.6093 117.481 67.2462C117.85 68.4085 118.245 69.58 118.667 70.7608L119.252 72.3529L118.974 72.2494C117.832 71.7877 116.63 71.1827 115.404 70.6573C114.178 70.1319 112.908 69.5986 111.601 69.1329C108.908 68.1648 106.117 67.4882 103.276 67.1149C100.276 66.723 97.237 66.723 94.2372 67.1149C91.0881 67.5559 88.0112 68.4029 85.0855 69.6344C82.0287 70.9103 79.1222 72.5119 76.4178 74.4107C70.88 78.2874 65.8948 83.3383 61.3613 89.0699C59.0946 91.9436 56.9314 94.9845 54.8717 98.1926C53.8391 99.7847 52.8281 101.421 51.8386 103.1L51.4715 103.729L50.7536 104.967L50.3906 105.6L50.3019 105.755C50.3019 105.791 50.3019 105.807 50.3019 105.831V105.97V106.523C50.3019 106.563 50.3019 106.627 50.3019 106.651C50.3019 106.674 50.3422 106.718 50.3825 106.77C50.4727 106.885 50.5887 106.978 50.7213 107.041C50.7956 107.08 50.876 107.107 50.9593 107.12H51.1368C51.2287 107.117 51.3196 107.101 51.407 107.072C51.575 107.018 51.7253 106.92 51.8426 106.79L52.9114 105.759L71.0131 88.3415C83.7827 76.0664 101.36 59.1624 121.587 39.8503C126.653 35.0262 131.872 30.043 137.269 25C142.666 19.9571 148.365 14.9937 154.274 10.0662L158.71 6.34863C159.457 5.72373 160.203 5.09485 160.941 4.45005C161.312 4.12766 161.679 3.7973 162.042 3.455L162.316 3.19628L162.385 3.12862C162.417 3.10094 162.447 3.07029 162.473 3.03707L162.711 2.78632L162.949 2.53158L163.143 2.26491C163.208 2.18372 163.266 2.09716 163.316 2.00619L163.405 1.76738C163.437 1.70046 163.45 1.62602 163.441 1.55244V1.45294L163.413 1.35741C163.392 1.28689 163.358 1.2208 163.312 1.16238C163.275 1.11193 163.23 1.06759 163.179 1.03103C162.838 0.853547 162.444 0.798677 162.066 0.875803C161.836 0.895704 161.562 0.931526 161.356 0.959388L160.981 1.01511L160.239 1.14248C159.255 1.31761 158.283 1.5405 157.315 1.73951C155.375 2.17336 153.447 2.64701 151.515 3.14454C143.803 5.13466 136.107 7.43921 128.42 9.87114C106.495 16.8565 84.658 25.0279 63.7531 33.5734C58.5313 35.7148 53.3659 37.8761 48.257 40.0573L40.2548 43.5161L39.6336 43.7907L37.7904 44.5868C36.3527 45.2116 35.0113 46.033 33.8054 47.0266C35.3576 46.8064 36.8721 46.3779 38.3067 45.753L40.1499 44.9569L40.7751 44.6823L48.7652 41.2274C53.8553 39.0542 59.0126 36.8969 64.2371 34.7556C85.1178 26.218 106.93 18.0585 128.823 11.0891C136.487 8.66115 144.174 6.36455 151.85 4.38239C153.765 3.88884 155.685 3.41519 157.605 2.98931C158.565 2.77438 159.525 2.57138 160.481 2.40023L161.195 2.27685L161.55 2.2251L161.183 2.57934C160.832 2.90174 160.477 3.22414 160.114 3.54256C159.384 4.17542 158.646 4.80032 157.904 5.42521L153.467 9.13877C147.546 14.0782 141.819 19.0575 136.41 24.1164C131.001 29.1753 125.786 34.1546 120.72 38.9786C100.489 58.2947 82.9156 75.1988 70.146 87.4738L52.5646 104.394L52.9316 103.769C53.9131 102.108 54.9147 100.485 55.9365 98.9011C57.9814 95.7169 60.115 92.7118 62.3576 89.8779C66.8346 84.214 71.7432 79.2506 77.1479 75.4694C79.774 73.6144 82.598 72.0488 85.5695 70.8006C88.3974 69.6286 91.3682 68.8258 94.4066 68.4125C97.2959 68.0298 100.224 68.0231 103.115 68.3926C105.867 68.753 108.572 69.4082 111.181 70.3468C112.456 70.8006 113.69 71.3061 114.896 71.8394C116.102 72.3728 117.26 72.9459 118.526 73.4594L118.772 73.5509L118.95 73.6106L119.163 73.6703C119.442 73.759 119.74 73.7673 120.022 73.6942C120.148 73.6551 120.262 73.5886 120.358 73.4997C120.454 73.4108 120.528 73.3018 120.575 73.1808C120.658 72.9136 120.658 72.628 120.575 72.3608C120.462 72.0026 120.426 71.919 120.361 71.7479L120.188 71.2822L119.869 70.4065C119.466 69.2403 119.062 68.0821 118.695 66.9318C117.235 62.3386 116.146 57.9245 115.263 53.7493C114.38 49.574 113.718 45.6296 113.182 41.9359C112.117 34.5486 111.569 28.1683 111.25 22.779C110.953 18.3753 110.88 13.9597 111.032 9.54874C111.056 9.11887 111.089 8.70891 111.133 8.32681C111.153 8.13575 111.181 7.94868 111.214 7.79345C111.225 7.73825 111.24 7.68376 111.258 7.63026L111.21 7.60638L111.105 7.55464C111.051 7.53361 110.999 7.50692 110.951 7.47503C110.899 7.43523 110.867 7.41931 110.843 7.39543C110.827 7.38282 110.813 7.36807 110.802 7.35165C110.802 7.30388 110.802 7.35165 110.754 7.39941C110.725 7.43352 110.691 7.46306 110.653 7.48698L110.504 7.5825C110.451 7.61501 110.396 7.64298 110.338 7.66609C110.341 7.67524 110.341 7.68479 110.338 7.69395C110.349 7.72393 110.359 7.75449 110.367 7.78549C110.39 7.86274 110.408 7.94112 110.423 8.02033L110.516 8.51388C110.583 8.82767 110.631 9.14541 110.657 9.46515C110.742 10.0701 110.738 10.6592 110.77 11.1528C110.802 11.6463 110.77 12.1279 110.77 12.5379C110.77 12.9479 110.726 13.3021 110.709 13.6046L110.637 14.3608C110.601 14.7589 110.576 14.9619 110.576 14.9619L110.508 15.4793C110.467 15.8256 110.391 16.3549 110.27 17.0714C110.149 17.7878 109.975 18.6635 109.729 19.774C109.436 21.0556 109.073 22.3206 108.64 23.5632L108.443 24.0965C108.366 24.2716 108.297 24.4388 108.213 24.6259L107.656 25.7762C107.273 26.5722 106.85 27.4041 106.394 28.2757C105.938 29.1474 105.43 30.0629 104.865 30.9982C104.287 31.9719 103.639 32.9031 102.925 33.7844C102.571 34.2343 102.165 34.6417 101.715 34.9984C101.517 35.1517 101.293 35.2689 101.054 35.3446C100.972 35.3723 100.885 35.3828 100.799 35.3752C100.713 35.3677 100.629 35.3423 100.553 35.3009C100.235 35.1337 99.9121 34.5605 99.7185 33.9635C99.5116 33.3141 99.3618 32.6482 99.2708 31.9734C99.0696 30.4918 98.9698 28.9984 98.9724 27.5036C98.9724 25.938 99.0248 24.3088 99.1297 22.6159C99.1902 21.7681 99.2627 20.9083 99.3636 20.0406C99.412 19.6068 99.4685 19.169 99.537 18.7351C99.5733 18.5202 99.6096 18.3053 99.654 18.1062C99.6742 18.0187 99.7104 17.8993 99.7145 17.8873L99.4362 17.756C99.3683 17.7182 99.3023 17.677 99.2386 17.6326C99.1902 17.5809 99.2144 17.5689 99.1942 17.5928C99.1495 17.6348 99.0957 17.6661 99.0369 17.6843C98.9421 17.7206 98.8451 17.7512 98.7465 17.7759L98.6497 17.8037V17.8475C98.6704 18.0525 98.6798 18.2585 98.6779 18.4645C98.6779 18.6874 98.6779 18.9063 98.6779 19.1331C98.6779 19.5869 98.6336 20.0446 98.5892 20.5063C98.5005 21.4297 98.3633 22.377 98.1859 23.3323C97.8183 25.3133 97.3471 27.2742 96.7742 29.2071C96.1772 31.27 95.4553 33.2956 94.6123 35.273C94.1782 36.2929 93.6715 37.2812 93.0958 38.2303C92.8211 38.6868 92.4935 39.1103 92.1197 39.4921C91.9695 39.6465 91.7935 39.7744 91.5994 39.8702C91.4007 39.9208 91.1944 39.9356 90.9903 39.914C90.0344 39.8781 89.2197 39.1498 88.6591 38.1746C88.0714 37.1255 87.6407 35.9981 87.3805 34.8272C86.84 32.3396 86.5335 29.808 86.4649 27.2648C86.352 24.6259 86.3802 21.9034 86.5012 19.1132C86.6222 16.3231 86.84 13.4573 87.1627 10.5358C87.2434 9.80745 87.3321 9.07111 87.4329 8.33477C87.4854 7.97256 87.5378 7.6024 87.5943 7.23622L87.687 6.69093L87.7112 6.55958V6.49192C88.163 6.55958 87.1103 6.32077 87.1909 6.34465C87.1909 6.32077 87.1909 6.36853 87.1909 6.34465C87.1909 6.32077 87.1909 6.34465 87.1909 6.34465C87.2837 6.34465 86.1866 6.34465 86.6505 6.37649C86.6222 7.8651 86.5335 9.40545 86.4448 10.9498C86.0414 17.139 85.5211 23.6308 84.7185 30.4052C84.3151 33.7884 83.8392 37.2472 83.1818 40.7538C82.8622 42.5118 82.4502 44.2521 81.9476 45.9679C81.7054 46.8094 81.3798 47.6253 80.9755 48.4038C80.8172 48.7152 80.5897 48.9873 80.31 49.1999C80.2562 49.2339 80.1914 49.2467 80.1285 49.2357C80.0078 49.1824 79.9004 49.1036 79.8139 49.0048C79.5406 48.696 79.3113 48.3519 79.1323 47.9819C78.9226 47.5839 78.6846 47.1859 78.491 46.748C78.0876 45.9162 77.6843 45.0644 77.3697 44.1887C76.6937 42.4146 76.1741 40.5862 75.8169 38.7239C75.0828 34.9506 74.8771 30.9863 74.8045 26.9384C74.7601 24.4149 74.7722 21.7362 74.861 18.8943C74.9013 17.4774 74.9618 16.0166 75.0384 14.5161L75.0667 13.9549V13.8872C74.748 14.2534 74.744 13.8872 74.623 13.9071C74.5302 13.8394 74.5101 13.7877 74.5181 13.7956C74.4743 13.8517 74.4176 13.8967 74.3528 13.927C74.2419 13.9834 74.1273 14.0326 74.0099 14.0743V14.0981L74.0341 14.1937C74.0906 14.5002 74.1229 14.8862 74.1511 15.2564C74.2035 16.0087 74.2358 16.7808 74.26 17.561C74.3568 20.6974 74.3649 23.9851 74.4012 27.416C74.4375 30.847 74.506 34.3974 74.4576 38.0631C74.4294 39.8941 74.377 41.7568 74.2237 43.6355C74.139 44.5669 74.0462 45.5062 73.8688 46.4216C73.6803 47.3489 73.4283 48.2625 73.1145 49.1561C72.5035 51.0139 71.7539 52.8245 70.872 54.5732C70.4282 55.4485 69.9158 56.2883 69.3393 57.0847C68.8256 57.8551 68.1345 58.4947 67.3226 58.9514C66.9769 59.1215 66.5825 59.1693 66.2054 59.0868C65.8061 58.9647 65.4441 58.7457 65.1527 58.4499C64.4781 57.7302 63.9325 56.9024 63.5393 56.0021C63.1032 55.0608 62.7287 54.093 62.4181 53.1045C62.0954 52.1014 61.8131 51.0825 61.5791 50.0476C61.0851 47.9779 60.8748 45.852 60.954 43.727C60.999 42.6746 61.182 41.6324 61.4985 40.6264C61.6517 40.1423 61.8644 39.6785 62.1317 39.2453C62.3624 38.8486 62.6895 38.5148 63.0836 38.2741C63.2419 38.1752 63.4231 38.1179 63.6101 38.1074C63.7972 38.097 63.9838 38.1338 64.1524 38.2144C64.5536 38.4283 64.8892 38.7444 65.1245 39.1299C65.6688 40.0415 66.0393 41.0438 66.2175 42.0872C66.5919 44.303 66.6733 46.5574 66.4595 48.7939C66.0844 53.3353 65.0841 57.9484 62.7569 62.0162C62.6197 62.2709 62.4665 62.5177 62.3051 62.7605C62.1438 63.0033 61.9986 63.2541 61.8332 63.4969C61.4904 63.9665 61.1597 64.4481 60.7765 64.8899C60.3933 65.3317 60.0102 65.7696 59.6149 66.2034C59.2196 66.6373 58.78 67.0273 58.3282 67.3975C56.5273 68.9272 54.4886 70.1609 52.2903 71.0513C50.0349 71.9546 47.6874 72.6152 45.2884 73.0216C44.6874 73.129 44.0784 73.2285 43.4653 73.3241L42.5457 73.4554L42.0859 73.5231L41.5939 73.6067C40.2492 73.8369 38.986 74.4013 37.9235 75.2465C36.7928 76.132 36.0551 77.4165 35.8665 78.8287C35.7951 79.565 35.9232 80.3067 36.2376 80.9781C36.5671 81.6303 37.0531 82.1933 37.6533 82.6179C38.2278 83.0185 38.8657 83.3225 39.5409 83.5174C39.8676 83.6176 40.2003 83.6974 40.5371 83.7563C40.8889 83.8145 41.2453 83.8412 41.6019 83.8359C42.9932 83.7687 44.338 83.3208 45.486 82.5423C46.5927 81.8189 47.5977 80.9543 48.4748 79.9711C49.3465 79.0103 50.1434 77.9857 50.8585 76.9063C52.2744 74.742 53.4585 72.4383 54.3917 70.0324C55.361 67.6377 56.0511 65.142 56.4487 62.5933C56.6468 61.2989 56.7117 59.9881 56.6423 58.6808C56.5981 57.3132 56.238 55.9736 55.5896 54.7642C55.409 54.452 55.1969 54.1586 54.9564 53.8886C54.8313 53.7572 54.6982 53.6219 54.553 53.4905L54.1739 53.1602C53.6521 52.7286 53.0934 52.3424 52.5041 52.0059C51.9077 51.6741 51.2812 51.3983 50.6326 51.182C49.9764 50.9718 49.301 50.8251 48.6159 50.7442C47.2688 50.5923 45.9053 50.665 44.5826 50.9591C43.2792 51.2496 42.0158 51.6932 40.8195 52.2806C38.4644 53.4588 36.3396 55.0395 34.5436 56.9494C33.6152 57.9057 32.8154 58.9758 32.1639 60.1336C31.8165 60.7422 31.5662 61.4 31.4217 62.0839C31.34 62.4778 31.34 62.884 31.4217 63.2779C31.5213 63.717 31.7687 64.1099 32.1235 64.3924C32.4661 64.6368 32.8631 64.7965 33.2811 64.8581C33.6539 64.9224 34.0337 64.9371 34.4104 64.9019C35.127 64.8138 35.8199 64.5908 36.4513 64.2451C37.6201 63.5863 38.6707 62.7417 39.561 61.7456C41.2895 59.8259 42.7059 57.6534 43.7598 55.3055C44.8401 52.9829 45.5646 50.5147 45.9095 47.9819C46.2954 45.423 46.0321 42.8095 45.1432 40.3757C44.9049 39.7687 44.6148 39.1828 44.276 38.6244C43.9324 38.0692 43.5425 37.5434 43.1104 37.0522C42.2375 36.0788 41.2088 35.2532 40.0652 34.6083C37.808 33.4189 35.3274 32.6995 32.7769 32.4948C30.2716 32.2636 27.7446 32.4765 25.3152 33.1237C22.9301 33.7641 20.6498 34.7371 18.5432 36.0133C16.4746 37.2679 14.5466 38.7356 12.7917 40.3916C11.0628 42.0037 9.47228 43.7543 8.03635 45.6256C6.61867 47.4619 5.3445 49.4019 4.22483 51.4288C3.10943 53.4272 2.1871 55.5247 1.47005 57.6937C1.29258 58.235 1.13931 58.7843 1.00218 59.3335L0.86908 59.9226V59.9943L0.840847 60.1375C0.721103 60.7184 0.637589 61.3059 0.590779 61.8968C0.502156 62.7591 0.606806 63.6302 0.897314 64.4481C1.03335 64.8066 1.22671 65.1412 1.47005 65.4392C1.7302 65.7501 2.06028 65.9968 2.43402 66.1596Z" fill="#1D1D1B"/>
<path d="M2.43402 66.1596C2.01911 65.5971 1.79213 64.921 1.78465 64.2252C1.7466 63.4768 1.76278 62.7266 1.83305 61.9804C1.88218 61.4365 1.96163 60.8957 2.07102 60.3604L2.09925 60.2291V60.1614L2.22832 59.6122C2.35739 59.0907 2.50259 58.5733 2.66796 58.0559C3.35989 55.9653 4.24982 53.9437 5.32594 52.0179C6.41632 50.0475 7.65537 48.1608 9.03259 46.3739C10.4313 44.5577 11.98 42.859 13.6629 41.2951C15.3569 39.7037 17.2188 38.2959 19.2168 37.096C21.224 35.8801 23.3971 34.9539 25.6702 34.3456C27.956 33.7343 30.3345 33.5335 32.6922 33.7526C35.0637 33.9407 37.3711 34.6058 39.4723 35.7069C40.4919 36.2777 41.4102 37.009 42.1908 37.8721C42.9662 38.7405 43.5769 39.7396 43.9937 40.8215C44.8052 43.062 45.0422 45.4659 44.6834 47.8187C44.3531 50.2272 43.664 52.5744 42.6385 54.7841C41.6395 57.0176 40.2967 59.0852 38.6576 60.9137C37.864 61.8059 36.928 62.5641 35.8867 63.1585C35.4006 63.4245 34.8685 63.5986 34.3177 63.672C33.8436 63.7407 33.36 63.648 32.9463 63.4093C32.8081 63.3006 32.7137 63.1467 32.6801 62.9755C32.6358 62.7453 32.6358 62.509 32.6801 62.2789C32.8016 61.7212 33.0069 61.1846 33.2892 60.6868C33.8914 59.633 34.6274 58.6592 35.4793 57.7892C37.1866 55.9931 39.2037 54.5106 41.4366 53.4109C43.6509 52.3403 46.1233 51.6994 48.5232 51.994C49.7186 52.1356 50.8733 52.5118 51.9192 53.1005C52.4419 53.3997 52.9372 53.7433 53.3995 54.1274L53.7423 54.4219C53.8512 54.5214 53.94 54.613 54.0368 54.7125C54.2197 54.9194 54.3817 55.1433 54.5208 55.3812C55.0676 56.4255 55.3708 57.5774 55.4081 58.7524C55.4707 59.9748 55.4086 61.2002 55.2226 62.4103C54.837 64.8646 54.1713 67.268 53.2382 69.5747C52.3311 71.8866 51.1835 74.0995 49.8138 76.1779C49.1366 77.205 48.3802 78.1791 47.5511 79.0914C46.7488 79.9936 45.8294 80.7872 44.8165 81.4517C43.8642 82.104 42.7473 82.4829 41.5898 82.5463C41.3195 82.5497 41.0495 82.5284 40.7832 82.4826C40.498 82.4328 40.2165 82.365 39.9402 82.2796C39.3993 82.127 38.888 81.8862 38.4277 81.5671C37.9969 81.2651 37.6479 80.8633 37.4113 80.3969C37.196 79.9341 37.1084 79.4233 37.1572 78.9163C37.3171 77.8357 37.8954 76.8583 38.7705 76.1898C39.6684 75.4797 40.7342 75.0059 41.8681 74.8127L42.2997 74.741L42.7635 74.6734L43.6952 74.538C44.3164 74.4465 44.9375 74.343 45.5546 74.2316C48.0425 73.8089 50.4767 73.1216 52.8146 72.1817C55.1539 71.2399 57.3225 69.9293 59.2357 68.301C59.7157 67.903 60.1554 67.4572 60.6031 67.0273C61.0508 66.5975 61.4581 66.1198 61.8413 65.6303C62.2245 65.1407 62.5955 64.6511 62.9585 64.1536C63.132 63.8989 63.2933 63.6362 63.4587 63.3775C63.624 63.1187 63.7894 62.86 63.9346 62.5814C65.1319 60.4647 66.0418 58.2018 66.641 55.8508C67.2304 53.5503 67.6177 51.2039 67.7986 48.8377C68.0198 46.4893 67.9317 44.1226 67.5364 41.7966C67.3289 40.5923 66.8952 39.4368 66.2578 38.3895C65.8951 37.8059 65.3739 37.3343 64.7534 37.0283C64.4028 36.8635 64.0158 36.7882 63.6281 36.8094C63.2464 36.8319 62.8752 36.9408 62.5431 37.1278C61.9634 37.4724 61.4797 37.9539 61.1355 38.5288C60.8136 39.0479 60.5576 39.604 60.3731 40.1846C60.0206 41.2946 59.8172 42.4454 59.7681 43.6076C59.6572 45.8539 59.8553 48.1046 60.357 50.2984C60.599 51.3598 60.8881 52.4132 61.2242 53.4587C61.5523 54.4987 61.947 55.517 62.406 56.5076C62.8583 57.5432 63.4888 58.4939 64.2694 59.3176C64.7147 59.7679 65.2705 60.097 65.8827 60.2729C66.5373 60.4264 67.2256 60.3519 67.8308 60.0619C68.3674 59.8079 68.8548 59.463 69.2707 59.043C69.6635 58.6588 70.0237 58.2435 70.3476 57.8011C70.9635 56.949 71.511 56.0507 71.9852 55.1145C72.8994 53.3091 73.6746 51.4384 74.3044 49.5183C74.6389 48.5741 74.9084 47.6087 75.111 46.6286C75.2861 45.6657 75.4113 44.6946 75.4861 43.7191C75.6394 41.7966 75.6959 39.9179 75.7201 38.0671C75.7725 34.3735 75.7201 30.8112 75.6676 27.3882C75.6152 23.9652 75.6233 20.6695 75.5224 17.5132C75.4982 16.7171 75.466 15.9211 75.4135 15.1569C75.3881 14.7501 75.341 14.3448 75.2724 13.9429C75.2609 13.8811 75.2461 13.82 75.228 13.7598C75.2037 13.6628 75.1671 13.5692 75.1191 13.4812C75.0586 13.4215 75.0667 13.2703 74.6432 13.131C74.5166 13.1056 74.3852 13.1169 74.265 13.1635C74.1448 13.2101 74.0408 13.29 73.9656 13.3936C73.8728 13.5807 73.9293 13.2941 73.8002 13.7917V13.8633L73.772 14.4285C73.6953 15.933 73.6389 17.3978 73.5945 18.8267C73.5058 21.6805 73.4937 24.399 73.538 26.9264C73.6106 31.0062 73.8163 35.0302 74.5746 38.9269C74.9455 40.8599 75.4853 42.7576 76.1879 44.5987C76.5348 45.5102 76.9301 46.3978 77.3576 47.2655C77.5593 47.7033 77.8013 48.1172 78.0231 48.5431C78.2567 49.0174 78.5567 49.4569 78.9145 49.8486C79.1478 50.0964 79.4384 50.2849 79.7615 50.3979C80.1585 50.5029 80.5813 50.4501 80.9392 50.2506C81.207 50.0856 81.4421 49.8738 81.633 49.6257C81.7975 49.4168 81.9458 49.1959 82.0766 48.965C82.5243 48.108 82.8851 47.2094 83.1535 46.2823C83.6703 44.5236 84.093 42.7394 84.42 40.9369C85.0895 37.3984 85.5614 33.9197 85.9728 30.5166C86.7795 23.7144 87.32 17.2067 87.7032 10.9896C87.7919 9.43331 87.8847 7.9049 87.9129 6.36057C87.9182 6.26468 87.9044 6.1687 87.8726 6.07797C87.8085 5.90586 87.6798 5.76472 87.513 5.68391C87.3462 5.60311 87.1543 5.58886 86.9772 5.64413C86.8823 5.67195 86.7942 5.71884 86.7186 5.78186C86.6429 5.84488 86.5813 5.92266 86.5375 6.01031C86.5 6.0794 86.4767 6.15516 86.469 6.2332V6.30484L86.4407 6.44813L86.3439 7.02129C86.2875 7.39941 86.231 7.77355 86.1786 8.15168C86.0737 8.89996 85.985 9.64028 85.9043 10.3806C85.5776 13.3339 85.3638 16.2236 85.2388 19.0416C85.1137 21.8596 85.0855 24.6139 85.1984 27.2966C85.2798 29.9275 85.6052 32.5455 86.1705 35.1178C86.4493 36.3926 86.911 37.6216 87.5418 38.7677C87.8769 39.3692 88.326 39.9016 88.8648 40.3359C89.4349 40.8048 90.1409 41.0834 90.8814 41.1319H91.1517H91.4179C91.633 41.1219 91.8453 41.0789 92.0471 41.0045C92.3943 40.8503 92.709 40.6329 92.9748 40.3637C93.4224 39.9125 93.8137 39.4101 94.1404 38.8672C94.7546 37.8672 95.2938 36.8242 95.7537 35.7467C96.617 33.7211 97.3564 31.6464 97.968 29.5335C98.5537 27.5589 99.0343 25.5554 99.408 23.5313C99.5895 22.5482 99.7306 21.573 99.8113 20.6019C99.8597 20.1202 99.896 19.6347 99.9081 19.153C99.9081 18.9103 99.9081 18.6675 99.9081 18.4247C99.9116 18.1693 99.8982 17.914 99.8678 17.6605C99.8544 17.5458 99.8259 17.4335 99.7831 17.3261C99.7325 17.205 99.6469 17.1012 99.537 17.0276C99.2628 16.7609 98.7304 17.0276 98.7304 17.0953C98.6724 17.1483 98.6234 17.2101 98.5852 17.2784C98.5671 17.3106 98.551 17.3438 98.5368 17.3779C98.4811 17.5185 98.4379 17.6637 98.4077 17.8117C98.3512 18.0585 98.3109 18.2893 98.2746 18.5202C98.198 18.9819 98.1415 19.4317 98.089 19.8814C97.9896 20.773 97.9116 21.6487 97.8551 22.5084C97.7341 24.2332 97.6803 25.8956 97.6938 27.4956C97.691 29.0478 97.7948 30.5983 98.0043 32.1366C98.1067 32.8818 98.274 33.6169 98.5045 34.3337C98.6163 34.7053 98.7678 35.0642 98.9562 35.4044C99.1759 35.7971 99.4956 36.1264 99.8839 36.3596C100.102 36.4799 100.343 36.556 100.592 36.5833C100.84 36.6106 101.092 36.5887 101.332 36.5188C101.722 36.4041 102.087 36.2192 102.409 35.9735C102.952 35.5582 103.442 35.0798 103.869 34.5486C104.629 33.6068 105.319 32.6118 105.934 31.5714C106.515 30.6042 107.031 29.6768 107.499 28.7852C107.967 27.8936 108.354 27.0459 108.757 26.2498L109.318 25.0836C109.407 24.8925 109.491 24.6856 109.576 24.4866L109.79 23.9134C110.238 22.625 110.615 21.3136 110.919 19.9849C111.173 18.8665 111.351 17.9431 111.476 17.1988C111.601 16.4544 111.677 15.9211 111.722 15.5589L111.79 15.0255C111.79 15.0255 111.815 14.8226 111.851 14.4086L111.927 13.6126C111.927 13.2941 111.964 12.924 111.988 12.4981C112.012 12.0722 111.988 11.5866 112.012 11.0453C112.036 10.504 111.984 9.899 111.891 9.23828C111.862 8.89053 111.811 8.54491 111.738 8.20342L111.633 7.65415C111.614 7.55212 111.59 7.45115 111.56 7.35165C111.523 7.21257 111.467 7.07881 111.395 6.95362C111.379 6.92204 111.358 6.89262 111.335 6.86606C111.305 6.82351 111.269 6.78475 111.23 6.75063C111.193 6.71927 111.154 6.69129 111.113 6.66705C111.063 6.63878 111.01 6.61609 110.955 6.59938C110.809 6.56 110.653 6.56838 110.512 6.62326C110.459 6.65805 110.412 6.69954 110.371 6.74665C110.343 6.76708 110.318 6.78971 110.294 6.81432L110.225 6.88994L110.193 6.9377L110.137 7.03323L110.108 7.09691C110.058 7.22593 110.019 7.35912 109.991 7.49494C109.943 7.72181 109.915 7.92878 109.891 8.14371C109.842 8.56562 109.81 8.99548 109.782 9.43729C109.608 12.9598 109.697 17.3978 110 22.8069C110.302 28.216 110.871 34.6441 111.944 42.0712C112.484 45.7848 113.154 49.7531 114.037 53.9642C114.92 58.1753 116.017 62.6093 117.481 67.2462C117.85 68.4085 118.245 69.58 118.667 70.7608L119.252 72.3529L118.974 72.2494C117.832 71.7877 116.63 71.1827 115.404 70.6573C114.178 70.1319 112.908 69.5986 111.601 69.1329C108.908 68.1648 106.117 67.4882 103.276 67.1149C100.276 66.723 97.237 66.723 94.2372 67.1149C91.0881 67.5559 88.0112 68.4029 85.0855 69.6344C82.0287 70.9103 79.1222 72.5119 76.4178 74.4107C70.88 78.2874 65.8948 83.3383 61.3613 89.0699C59.0946 91.9436 56.9314 94.9845 54.8717 98.1926C53.8391 99.7847 52.8281 101.421 51.8386 103.1L51.4715 103.729L50.7536 104.967L50.3906 105.6L50.3019 105.755C50.3019 105.791 50.3019 105.807 50.3019 105.831V105.97V106.523C50.3019 106.563 50.3019 106.627 50.3019 106.651C50.3019 106.674 50.3422 106.718 50.3825 106.77C50.4727 106.885 50.5887 106.978 50.7213 107.041C50.7956 107.08 50.876 107.107 50.9593 107.12H51.1368C51.2287 107.117 51.3196 107.101 51.407 107.072C51.575 107.018 51.7253 106.92 51.8426 106.79L52.9114 105.759L71.0131 88.3415C83.7827 76.0664 101.36 59.1624 121.587 39.8503C126.653 35.0262 131.872 30.043 137.269 25C142.666 19.9571 148.365 14.9937 154.274 10.0662L158.71 6.34863C159.457 5.72373 160.203 5.09485 160.941 4.45005C161.312 4.12766 161.679 3.7973 162.042 3.455L162.316 3.19628L162.385 3.12862C162.417 3.10094 162.447 3.07029 162.473 3.03707L162.711 2.78632L162.949 2.53158L163.143 2.26491C163.208 2.18372 163.266 2.09716 163.316 2.00619L163.405 1.76738C163.437 1.70046 163.45 1.62602 163.441 1.55244V1.45294L163.413 1.35741C163.392 1.28689 163.358 1.2208 163.312 1.16238C163.275 1.11193 163.23 1.06759 163.179 1.03103C162.838 0.853547 162.444 0.798677 162.066 0.875803C161.836 0.895704 161.562 0.931526 161.356 0.959388L160.981 1.01511L160.239 1.14248C159.255 1.31761 158.283 1.5405 157.315 1.73951C155.375 2.17336 153.447 2.64701 151.515 3.14454C143.803 5.13466 136.107 7.43921 128.42 9.87114C106.495 16.8565 84.658 25.0279 63.7531 33.5734C58.5313 35.7148 53.3659 37.8761 48.257 40.0573L40.2548 43.5161L39.6336 43.7907L37.7904 44.5868C36.3527 45.2116 35.0113 46.033 33.8054 47.0266C35.3576 46.8064 36.8721 46.3779 38.3067 45.753L40.1499 44.9569L40.7751 44.6823L48.7652 41.2274C53.8553 39.0542 59.0126 36.8969 64.2371 34.7556C85.1178 26.218 106.93 18.0585 128.823 11.0891C136.487 8.66115 144.174 6.36455 151.85 4.38239C153.765 3.88884 155.685 3.41519 157.605 2.98931C158.565 2.77438 159.525 2.57138 160.481 2.40023L161.195 2.27685L161.55 2.2251L161.183 2.57934C160.832 2.90174 160.477 3.22414 160.114 3.54256C159.384 4.17542 158.646 4.80032 157.904 5.42521L153.467 9.13877C147.546 14.0782 141.819 19.0575 136.41 24.1164C131.001 29.1753 125.786 34.1546 120.72 38.9786C100.489 58.2947 82.9156 75.1988 70.146 87.4738L52.5646 104.394L52.9316 103.769C53.9131 102.108 54.9147 100.485 55.9365 98.9011C57.9814 95.7169 60.115 92.7118 62.3576 89.8779C66.8346 84.214 71.7432 79.2506 77.1479 75.4694C79.774 73.6144 82.598 72.0488 85.5695 70.8006C88.3974 69.6286 91.3682 68.8258 94.4066 68.4125C97.2959 68.0298 100.224 68.0231 103.115 68.3926C105.867 68.753 108.572 69.4082 111.181 70.3468C112.456 70.8006 113.69 71.3061 114.896 71.8394C116.102 72.3728 117.26 72.9459 118.526 73.4594L118.772 73.5509L118.95 73.6106L119.163 73.6703C119.442 73.759 119.74 73.7673 120.022 73.6942C120.148 73.6551 120.262 73.5886 120.358 73.4997C120.454 73.4108 120.528 73.3018 120.575 73.1808C120.658 72.9136 120.658 72.628 120.575 72.3608C120.462 72.0026 120.426 71.919 120.361 71.7479L120.188 71.2822L119.869 70.4065C119.466 69.2403 119.062 68.0821 118.695 66.9318C117.235 62.3386 116.146 57.9245 115.263 53.7493C114.38 49.574 113.718 45.6296 113.182 41.9359C112.117 34.5486 111.569 28.1683 111.25 22.779C110.953 18.3753 110.88 13.9597 111.032 9.54874C111.056 9.11887 111.089 8.70891 111.133 8.32681C111.153 8.13575 111.181 7.94868 111.214 7.79345C111.225 7.73825 111.24 7.68376 111.258 7.63026L111.21 7.60638L111.105 7.55464C111.051 7.53361 110.999 7.50692 110.951 7.47503C110.899 7.43523 110.867 7.41931 110.843 7.39543C110.827 7.38282 110.813 7.36807 110.802 7.35165C110.802 7.30388 110.802 7.35165 110.754 7.39941C110.725 7.43352 110.691 7.46306 110.653 7.48698L110.504 7.5825C110.451 7.61501 110.396 7.64298 110.338 7.66609C110.341 7.67524 110.341 7.68479 110.338 7.69395C110.349 7.72393 110.359 7.75449 110.367 7.78549C110.39 7.86274 110.408 7.94112 110.423 8.02033L110.516 8.51388C110.583 8.82767 110.631 9.14541 110.657 9.46515C110.742 10.0701 110.738 10.6592 110.77 11.1528C110.802 11.6463 110.77 12.1279 110.77 12.5379C110.77 12.9479 110.726 13.3021 110.709 13.6046L110.637 14.3608C110.601 14.7589 110.576 14.9619 110.576 14.9619L110.508 15.4793C110.467 15.8256 110.391 16.3549 110.27 17.0714C110.149 17.7878 109.975 18.6635 109.729 19.774C109.436 21.0556 109.073 22.3206 108.64 23.5632L108.443 24.0965C108.366 24.2716 108.297 24.4388 108.213 24.6259L107.656 25.7762C107.273 26.5722 106.85 27.4041 106.394 28.2757C105.938 29.1474 105.43 30.0629 104.865 30.9982C104.287 31.9719 103.639 32.9031 102.925 33.7844C102.571 34.2343 102.165 34.6417 101.715 34.9984C101.517 35.1517 101.293 35.2689 101.054 35.3446C100.972 35.3723 100.885 35.3828 100.799 35.3752C100.713 35.3677 100.629 35.3423 100.553 35.3009C100.235 35.1337 99.9121 34.5605 99.7185 33.9635C99.5116 33.3141 99.3618 32.6482 99.2708 31.9734C99.0696 30.4918 98.9698 28.9984 98.9724 27.5036C98.9724 25.938 99.0248 24.3088 99.1297 22.6159C99.1902 21.7681 99.2627 20.9083 99.3636 20.0406C99.412 19.6068 99.4685 19.169 99.537 18.7351C99.5733 18.5202 99.6096 18.3053 99.654 18.1062C99.6742 18.0187 99.7104 17.8993 99.7145 17.8873L99.4362 17.756C99.3683 17.7182 99.3023 17.677 99.2386 17.6326C99.1902 17.5809 99.2144 17.5689 99.1942 17.5928C99.1495 17.6348 99.0957 17.6661 99.0369 17.6843C98.9421 17.7206 98.8451 17.7512 98.7465 17.7759L98.6497 17.8037V17.8475C98.6704 18.0525 98.6798 18.2585 98.6779 18.4645C98.6779 18.6874 98.6779 18.9063 98.6779 19.1331C98.6779 19.5869 98.6336 20.0446 98.5892 20.5063C98.5005 21.4297 98.3633 22.377 98.1859 23.3323C97.8183 25.3133 97.3471 27.2742 96.7742 29.2071C96.1772 31.27 95.4553 33.2956 94.6123 35.273C94.1782 36.2929 93.6715 37.2812 93.0958 38.2303C92.8211 38.6868 92.4935 39.1103 92.1197 39.4921C91.9695 39.6465 91.7935 39.7744 91.5994 39.8702C91.4007 39.9208 91.1944 39.9356 90.9903 39.914C90.0344 39.8781 89.2197 39.1498 88.6591 38.1746C88.0714 37.1255 87.6407 35.9981 87.3805 34.8272C86.84 32.3396 86.5335 29.808 86.4649 27.2648C86.352 24.6259 86.3802 21.9034 86.5012 19.1132C86.6222 16.3231 86.84 13.4573 87.1627 10.5358C87.2434 9.80745 87.3321 9.07111 87.4329 8.33477C87.4854 7.97256 87.5378 7.6024 87.5943 7.23622L87.687 6.69093L87.7112 6.55958V6.49192C88.163 6.55958 87.1103 6.32077 87.1909 6.34465C87.1909 6.32077 87.1909 6.36853 87.1909 6.34465C87.1909 6.32077 87.1909 6.34465 87.1909 6.34465C87.2837 6.34465 86.1866 6.34465 86.6505 6.37649C86.6222 7.8651 86.5335 9.40545 86.4448 10.9498C86.0414 17.139 85.5211 23.6308 84.7185 30.4052C84.3151 33.7884 83.8392 37.2472 83.1818 40.7538C82.8622 42.5118 82.4502 44.2521 81.9476 45.9679C81.7054 46.8094 81.3798 47.6253 80.9755 48.4038C80.8172 48.7152 80.5897 48.9873 80.31 49.1999C80.2562 49.2339 80.1914 49.2467 80.1285 49.2357C80.0078 49.1824 79.9004 49.1036 79.8139 49.0048C79.5406 48.696 79.3113 48.3519 79.1323 47.9819C78.9226 47.5839 78.6846 47.1859 78.491 46.748C78.0876 45.9162 77.6843 45.0644 77.3697 44.1887C76.6937 42.4146 76.1741 40.5862 75.8169 38.7239C75.0828 34.9506 74.8771 30.9863 74.8045 26.9384C74.7601 24.4149 74.7722 21.7362 74.861 18.8943C74.9013 17.4774 74.9618 16.0166 75.0384 14.5161L75.0667 13.9549V13.8872C74.748 14.2534 74.744 13.8872 74.623 13.9071C74.5302 13.8394 74.5101 13.7877 74.5181 13.7956C74.4743 13.8517 74.4176 13.8967 74.3528 13.927C74.2419 13.9834 74.1273 14.0326 74.0099 14.0743V14.0981L74.0341 14.1937C74.0906 14.5002 74.1229 14.8862 74.1511 15.2564C74.2035 16.0087 74.2358 16.7808 74.26 17.561C74.3568 20.6974 74.3649 23.9851 74.4012 27.416C74.4375 30.847 74.506 34.3974 74.4576 38.0631C74.4294 39.8941 74.377 41.7568 74.2237 43.6355C74.139 44.5669 74.0462 45.5062 73.8688 46.4216C73.6803 47.3489 73.4283 48.2625 73.1145 49.1561C72.5035 51.0139 71.7539 52.8245 70.872 54.5732C70.4282 55.4485 69.9158 56.2883 69.3393 57.0847C68.8256 57.8551 68.1345 58.4947 67.3226 58.9514C66.9769 59.1215 66.5825 59.1693 66.2054 59.0868C65.8061 58.9647 65.4441 58.7457 65.1527 58.4499C64.4781 57.7302 63.9325 56.9024 63.5393 56.0021C63.1032 55.0608 62.7287 54.093 62.4181 53.1045C62.0954 52.1014 61.8131 51.0825 61.5791 50.0476C61.0851 47.9779 60.8748 45.852 60.954 43.727C60.999 42.6746 61.182 41.6324 61.4985 40.6264C61.6517 40.1423 61.8644 39.6785 62.1317 39.2453C62.3624 38.8486 62.6895 38.5148 63.0836 38.2741C63.2419 38.1752 63.4231 38.1179 63.6101 38.1074C63.7972 38.097 63.9838 38.1338 64.1524 38.2144C64.5536 38.4283 64.8892 38.7444 65.1245 39.1299C65.6688 40.0415 66.0393 41.0438 66.2175 42.0872C66.5919 44.303 66.6733 46.5574 66.4595 48.7939C66.0844 53.3353 65.0841 57.9484 62.7569 62.0162C62.6197 62.2709 62.4665 62.5177 62.3051 62.7605C62.1438 63.0033 61.9986 63.2541 61.8332 63.4969C61.4904 63.9665 61.1597 64.4481 60.7765 64.8899C60.3933 65.3317 60.0102 65.7696 59.6149 66.2034C59.2196 66.6373 58.78 67.0273 58.3282 67.3975C56.5273 68.9272 54.4886 70.1609 52.2903 71.0513C50.0349 71.9546 47.6874 72.6152 45.2884 73.0216C44.6874 73.129 44.0784 73.2285 43.4653 73.3241L42.5457 73.4554L42.0859 73.5231L41.5939 73.6067C40.2492 73.8369 38.986 74.4013 37.9235 75.2465C36.7928 76.132 36.0551 77.4165 35.8665 78.8287C35.7951 79.565 35.9232 80.3067 36.2376 80.9781C36.5671 81.6303 37.0531 82.1933 37.6533 82.6179C38.2278 83.0185 38.8657 83.3225 39.5409 83.5174C39.8676 83.6176 40.2003 83.6974 40.5371 83.7563C40.8889 83.8145 41.2453 83.8412 41.6019 83.8359C42.9932 83.7687 44.338 83.3208 45.486 82.5423C46.5927 81.8189 47.5977 80.9543 48.4748 79.9711C49.3465 79.0103 50.1434 77.9857 50.8585 76.9063C52.2744 74.742 53.4585 72.4383 54.3917 70.0324C55.361 67.6377 56.0511 65.142 56.4487 62.5933C56.6468 61.2989 56.7117 59.9881 56.6423 58.6808C56.5981 57.3132 56.238 55.9736 55.5896 54.7642C55.409 54.452 55.1969 54.1586 54.9564 53.8886C54.8313 53.7572 54.6982 53.6219 54.553 53.4905L54.1739 53.1602C53.6521 52.7286 53.0934 52.3424 52.5041 52.0059C51.9077 51.6741 51.2812 51.3983 50.6326 51.182C49.9764 50.9718 49.301 50.8251 48.6159 50.7442C47.2688 50.5923 45.9053 50.665 44.5826 50.9591C43.2792 51.2496 42.0158 51.6932 40.8195 52.2806C38.4644 53.4588 36.3396 55.0395 34.5436 56.9494C33.6152 57.9057 32.8154 58.9758 32.1639 60.1336C31.8165 60.7422 31.5662 61.4 31.4217 62.0839C31.34 62.4778 31.34 62.884 31.4217 63.2779C31.5213 63.717 31.7687 64.1099 32.1235 64.3924C32.4661 64.6368 32.8631 64.7965 33.2811 64.8581C33.6539 64.9224 34.0337 64.9371 34.4104 64.9019C35.127 64.8138 35.8199 64.5908 36.4513 64.2451C37.6201 63.5863 38.6707 62.7417 39.561 61.7456C41.2895 59.8259 42.7059 57.6534 43.7598 55.3055C44.8401 52.9829 45.5646 50.5147 45.9095 47.9819C46.2954 45.423 46.0321 42.8095 45.1432 40.3757C44.9049 39.7687 44.6148 39.1828 44.276 38.6244C43.9324 38.0692 43.5425 37.5434 43.1104 37.0522C42.2375 36.0788 41.2088 35.2532 40.0652 34.6083C37.808 33.4189 35.3274 32.6995 32.7769 32.4948C30.2716 32.2636 27.7446 32.4765 25.3152 33.1237C22.9301 33.7641 20.6498 34.7371 18.5432 36.0133C16.4746 37.2679 14.5466 38.7356 12.7917 40.3916C11.0628 42.0037 9.47228 43.7543 8.03635 45.6256C6.61867 47.4619 5.3445 49.4019 4.22483 51.4288C3.10943 53.4272 2.1871 55.5247 1.47005 57.6937C1.29258 58.235 1.13931 58.7843 1.00218 59.3335L0.86908 59.9226V59.9943L0.840847 60.1375C0.721103 60.7184 0.637589 61.3059 0.590779 61.8968C0.502156 62.7591 0.606806 63.6302 0.897314 64.4481C1.03335 64.8066 1.22671 65.1412 1.47005 65.4392C1.7302 65.7501 2.06028 65.9968 2.43402 66.1596Z" stroke="black" stroke-width="0.8" mask="url(#path-1-outside-1_254_230)"/>
</svg>
